<svg xmlns="http://www.w3.org/2000/svg" viewBox="0 0 500 500"><style type="text/css">  
	.st0{fill:#FF0000;}
</style><path class="st0" d="M389.2 256.5c-1.3-0.8-2.7-1.5-4.1-2.3 2.3-1.2 4.6-2.5 6.9-3.8 59.6-34.4 92.6-88.8 73.7-121.5 -18.9-32.7-82.5-31.3-142 3.1 -1.3 0.8-2.7 1.6-4 2.4 0.1-2.6 0.1-5.3 0.1-7.9 0-68.8-30.6-124.6-68.3-124.6s-68.3 55.8-68.3 124.6c0 1.5 0 3.1 0 4.6 -2.2-1.4-4.5-2.8-6.8-4.1 -59.6-34.4-123.2-35.8-142.1-3.1 -18.9 32.7 14.1 87.1 73.7 121.4 1.4 0.8 2.7 1.5 4.1 2.3 -2.3 1.2-4.7 2.5-7 3.8C45.7 285.9 12.7 340.3 31.6 373c18.9 32.7 82.5 31.3 142.1-3.1 1.3-0.8 2.6-1.5 4-2.4 -0.1 2.6-0.1 5.3-0.1 7.9 0 68.8 30.6 124.6 68.3 124.6 37.7 0 68.3-55.8 68.3-124.6 0-1.5 0-3.1 0-4.6 2.2 1.4 4.5 2.8 6.8 4.1 59.6 34.4 123.2 35.8 142.1 3.1C481.8 345.3 448.8 291 389.2 256.5zM251.6 303.5c-0.8 0-1.6 0-2.4-0.1 -2.1-0.1-4.1-0.3-6.1-0.6 -16.6-2.7-30.5-13.1-38-27.5 -0.6-1.1-1.1-2.2-1.6-3.4 -2.8-6.4-4.3-13.5-4.3-20.9 0-9.3 2.4-18.1 6.7-25.7 0.6-1.1 1.3-2.2 2-3.2 8.8-13.3 23.6-22.4 40.5-23.4 1.1-0.1 2.2-0.1 3.2-0.1 1 0 1.9 0 2.9 0.1 17.1 0.9 32 10 40.9 23.5 1.6 2.4 3 5 4.2 7.6 2.9 6.5 4.5 13.7 4.5 21.3 0 9.4-2.5 18.3-6.9 25.9 -1.4 2.5-3.1 4.9-4.9 7.1C282.7 296 268 303.5 251.6 303.5z"/></svg>