<svg xmlns="http://www.w3.org/2000/svg" viewBox="0 0 1600 900"><style type="text/css">  
	.st0{display:none;}
	.st1{display:inline;fill:#B8FFFF;}
	.st2{display:inline;fill:#6DB562;}
	.st3{display:inline;fill:#4D4D4D;}
	.st4{display:inline;fill:#808080;}
	.st5{fill:#009245;}
	.st6{display:inline;fill:#42210B;}
</style><g class="st0"><rect x="0.5" class="st1" width="1599.5" height="569.7"/></g><g class="st0"><path class="st2" d="M1600 488.8V900H0V521h2.3c30.2-24.7 92.6-38.5 216-65.3 114.6-24.9 211.9-46 351.3-59.3C756.3 378.5 898.5 386 987 391c182.3 10.4 311.6 34.2 413.3 53.3C1492.7 461.7 1556.1 473.8 1600 488.8z"/></g><g class="st0"><path class="st3" d="M841.7 811c-0.1-2.8-12.8-1.9-33.3-14.7 -20.9-13-37.6-32.4-44.7-40.7 -3.8-4.4-7.9-9.6-15.3-17.3 0 0-10-10.4-18.7-18 -20-17.3-53.8-14.2-107.3-23.3 -11.6-2-26.5-4.5-46-10 0 0-67.2-18.8-88.7-16.7 -1.7 0.2-3.5 0.4-3.5 0.4 -5.3 0.6-9.6 1.4-44.5 5.6 -32.5 4-28.9 3.3-33.3 4 0 0-51.1 7.9-86.7 28 -7.5 4.2-15 8.6-22 16.7 -2.6 3-4.1 5.4-9.3 11.3 -1.7 2-6.8 7.8-12 12.7 -9.1 8.6-13.9 10-20.7 15.3 -11 8.7-8.4 13-20 26.7 -4.7 5.5-20.1 23.6-43.3 29.3 -6.7 1.7-5.3 0.1-20.7 2.7 -15.3 2.6-24.5 4.1-33.3 9.3 -8.1 4.8-18.4 14-18 18C123.8 882.6 842.5 832 841.7 811z"/></g><g class="st0"><path class="st4" d="M1600 900H0.5c-0.4-6.8 12.3-14.2 37.5-29 34.2-20.1 66.7-26.9 149-37.5 35.2-4.5 59.4-7.6 100-11.5 64.2-6.1 75.6-5.3 135.5-10.5 69.2-6.1 103.8-9.1 145.5-17 61.2-11.6 63.5-18.5 135-32.5 50.7-9.9 91.6-14.7 115.5-17 49.3-4.8 84.2-5.1 143.5-5.5 81-0.5 121.5-0.7 173 5 63 7 111.9 18.5 139 25 34.9 8.3 60.3 14.4 94.5 27 52.2 19.2 49.9 26 98 42 64 21.2 69.9 21.9 86.5 30C1565 874.3 1581.7 883.9 1600 900z"/></g><ellipse class="st5" cx="238.7" cy="188.7" rx="163.6" ry="128.3"/><ellipse class="st5" cx="324.3" cy="132.7" rx="66.9" ry="65"/><ellipse class="st5" cx="365.5" cy="214.7" rx="66.9" ry="65"/><ellipse class="st5" cx="346" cy="276.7" rx="66.9" ry="65"/><ellipse class="st5" cx="289.2" cy="293.7" rx="66.9" ry="65"/><ellipse class="st5" cx="222.3" cy="284.8" rx="66.9" ry="65"/><ellipse class="st5" cx="180" cy="290.7" rx="66.9" ry="65"/><ellipse class="st5" cx="131.7" cy="162.3" rx="66.9" ry="65"/><ellipse class="st5" cx="175.1" cy="104.3" rx="66.9" ry="65"/><ellipse class="st5" cx="234.1" cy="104.3" rx="66.9" ry="65"/><ellipse class="st5" cx="116.8" cy="234.3" rx="66.9" ry="65"/><ellipse class="st5" cx="271" cy="108.7" rx="66.9" ry="65"/><g class="st0"><path class="st6" d="M264.5 276c4.3-13.6 13-23.7 13-23.8 13.7-16.1 31.5-21 37.3-22.5 10.3-2.7 18.7-2.6 21.5-2.5 18.6 0.6 32.2 8.3 38.5 12.5 -2-5.9-4.7-10.2-7.3-13.3 -18.1-21.7-53.4-15.1-56.5-14.5 2.7-2.7 6.2-5.7 10.5-8.5 8.7-5.7 17.1-8.3 23-9.5 -6.5-1.4-15.8-2.3-25.8 0.8 -22.8 7-32.8 29.6-38.4 26.9 -4.9-2.4 3.7-19.5-4.3-37.4 -3.7-8.3-9.7-13.9-14.3-17.3 2.8 3.6 8.3 11.6 8.5 22.5 0 1.5 0.1 4.4-0.8 7.5 -3.6 14.2-22.6 26.5-35.2 22.7 -8.8-2.7-9.2-11.8-18.3-24.4 -10.3-14.3-24.5-23.2-39-29 4.3 2.8 20.9 14.7 24 35.5 0.8 5.4 2.5 17-4 23.3 -10.2 9.7-35.2 1.2-49.3-11.5 -20.7-18.7-18.9-47.8-18.5-52.8 -5.7 9.4-6.9 17.6-7 22.5 -0.6 21 14.7 41.7 38.8 53.1 -7.2 1.2-15.5 1.9-24.5 1.7 -28.6-0.7-51-10.5-64.5-18 4.7 4.4 12 10.5 21.8 16.3 22.7 13.4 39.6 13.8 54.3 18.3 41.3 12.5 62.8 56.3 65.8 62.8 12.1 26.4 9.8 51.8 6 102.7 -2.2 29.4-7 54.7-16.7 105.3 -2.9 15.5-5.6 28.2-7.3 36.7 -5.4 6.1-14.2 14.7-26.8 22 -5.1 3-12.7 7.3-22.8 9.8 -18.9 4.7-35.8 0.1-45.3-3.5 12.5 9.8 23.6 12.7 30.3 13.8 17 2.7 35.5-2.1 38.8-3 9.6-2.6 15.9-5.7 17.5-3.5 1.9 2.6-4.1 10.5-8 14.5 -5 5.3-17.6 15.7-44.8 16.3 5.9 1.7 25.8 6.8 47.3-2.8 12.9-5.8 20.9-14.4 25-19.5 0.1 4.5-0.2 13.2-5 22.5 -7.4 14.5-20.4 20.4-24.3 22 5.6-0.8 13.8-2.7 22.3-7.8 18.9-11.4 25.3-30.2 27-35.8 2.4 2.3 8.5 8.8 10 19 2.5 16.6-9.2 28.5-10.5 29.8 4.9-3.9 16.4-14.2 19.7-30.8 0.9-4.4 1-8.5 0.8-12 1.8-2.7 3.7-5.3 5.5-8 0.2 2.6 1.6 17.4 14.3 27.5 16.5 13.2 36.8 6.2 38 5.8 -13.1 3.3-26.8-1.4-34.3-11.8 -9.2-12.7-4.5-27.5-4-29 1.6 2.2 16.7 21.7 40.3 20.8 9.9-0.4 17.5-4.3 21.8-7 -12.6 5.6-26.7 4.3-36.8-3.5 -9.1-7.1-11.6-17-12.3-20.3 3.4-1.4 10-3.7 18.5-3.3 8.4 0.5 14.5 3.4 17 4.8 8.7 4.7 13.5 11.4 15.5 14.8 -1.9-10.4-6.3-16.9-9-20.3 -4.6-5.6-9.6-8.7-17-13.3 -6.3-3.9-11.9-6.5-16-8.3 -0.5-1.5-1.2-3.7-2-6.5 -18.8-65.2 7.8-103.8 8.7-156.2C296.1 345 252.9 312.2 264.5 276z"/></g></svg>