<svg xmlns="http://www.w3.org/2000/svg" viewBox="0 0 1600 900"><style type="text/css">  
	.st0{display:none;}
	.st1{display:inline;fill:#B8FFFF;}
	.st2{display:inline;fill:#6DB562;}
	.st3{fill:#4D4D4D;}
	.st4{display:inline;fill:#808080;}
	.st5{display:inline;fill:#009245;}
	.st6{display:inline;fill:#42210B;}
</style><g class="st0"><rect x="0.5" class="st1" width="1599.5" height="569.7"/></g><g class="st0"><path class="st2" d="M1600 488.8V900H0V521h2.3c30.2-24.7 92.6-38.5 216-65.3 114.6-24.9 211.9-46 351.3-59.3C756.3 378.5 898.5 386 987 391c182.3 10.4 311.6 34.2 413.3 53.3C1492.7 461.7 1556.1 473.8 1600 488.8z"/></g><path class="st3" d="M841.7 811c-0.1-2.8-12.8-1.9-33.3-14.7 -20.9-13-37.6-32.4-44.7-40.7 -3.8-4.4-7.9-9.6-15.3-17.3 0 0-10-10.4-18.7-18 -20-17.3-53.8-14.2-107.3-23.3 -11.6-2-26.5-4.5-46-10 0 0-67.2-18.8-88.7-16.7 -1.7 0.2-3.5 0.4-3.5 0.4 -5.3 0.6-9.6 1.4-44.5 5.6 -32.5 4-28.9 3.3-33.3 4 0 0-51.1 7.9-86.7 28 -7.5 4.2-15 8.6-22 16.7 -2.6 3-4.1 5.4-9.3 11.3 -1.7 2-6.8 7.8-12 12.7 -9.1 8.6-13.9 10-20.7 15.3 -11 8.7-8.4 13-20 26.7 -4.7 5.5-20.1 23.6-43.3 29.3 -6.7 1.7-5.3 0.1-20.7 2.7 -15.3 2.6-24.5 4.1-33.3 9.3 -8.1 4.8-18.4 14-18 18C123.8 882.6 842.5 832 841.7 811z"/><g class="st0"><path class="st4" d="M1600 900H0.5c-0.4-6.8 12.3-14.2 37.5-29 34.2-20.1 66.7-26.9 149-37.5 35.2-4.5 59.4-7.6 100-11.5 64.2-6.1 75.6-5.3 135.5-10.5 69.2-6.1 103.8-9.1 145.5-17 61.2-11.6 63.5-18.5 135-32.5 50.7-9.9 91.6-14.7 115.5-17 49.3-4.8 84.2-5.1 143.5-5.5 81-0.5 121.5-0.7 173 5 63 7 111.9 18.5 139 25 34.9 8.3 60.3 14.4 94.5 27 52.2 19.2 49.9 26 98 42 64 21.2 69.9 21.9 86.5 30C1565 874.3 1581.7 883.9 1600 900z"/></g><g class="st0"><path class="st6" d="M264.5 276c10.4-19.8 39.8-32.7 101-31.5 -8-5-14.7-7.3-19.5-8.5 -3.8-0.9-8.8-1.8-9.5-4.5 -0.5-1.9 1.4-3.8 2-4.5 3.3-3.6 8.1-11.1 15-27.5 -31.2 27.3-62.2 33.1-73.2 22.2 -9.4-9.4-3.4-30.4-1.3-36.7 -8 27.1-30.5 39.6-44.7 34.7 -12.4-4.3-16.6-21.5-17.2-23.8 -0.5 2.4-5.3 24.2-20.2 29.2 -16.2 5.4-42.3-9.9-51-42.5 5 17.9 10 35.9 15 53.8 -29.7-5.4-59.3-10.9-89-16.3 25.3 11.5 50.7 23 76 34.5 17.5 8.4 49.4 27 65.8 62.8 12.1 26.4 9.8 51.8 6 102.7 -2.2 29.4-7 54.7-16.7 105.3 -2.9 15.5-5.6 28.2-7.3 36.7 -1.2 2.4-6.9 13-26.8 22 -20.3 9.2-40.5 10-52.5 9.5 25.1 11.7 42.2 10.9 53.5 7.5 6.6-2 15.6-6.1 17.5-3.5 1.3 1.8-1.3 6.3-8 14.5 -6.7 8.2-16.9 19.4-31.5 31.5 12.3-6 25.6-13.5 39.5-23 7.1-4.8 13.5-9.7 19.5-14.5 -5.3 13.2-10.7 26.3-16 39.5 6.3-3.9 14.5-10 22.5-19 6.2-7 10.5-13.9 13.5-19.5 1.6 1.3 9 7.9 10 19 0.8 8.7-2.8 15.2-4.2 17.3 10.2-7.2 12.8-13.7 13.3-18.3 0.6-5.4-1.6-9.6 0.8-12 2.6-2.6 8.6-0.8 13 1 0.8 2.3 3.2 7.9 9.2 12.3 5.7 4.3 11.6 5.1 14 5.3 -2.7-2.1-6-5.1-9-9.3 -6.9-9.9-7.6-20.2-7.7-24.8 3.2 4.2 8.5 9.8 16.5 14 15.9 8.3 33.3 5.8 33.5 4 0.2-1.6-13.2-1.4-25-11.5 -6.2-5.3-9.8-11.5-12-16.5 3.9-0.2 9.8-0.3 17 0 9.4 0.4 16.1 1.2 18.5 1.5 8.5 1 21.6 1.1 41.5-3 -12.2-1.6-22.3-3.7-30-5.5 -28.5-6.7-35.1-12.6-38-18.5 -0.5-1.5-1.2-3.7-2-6.5 -18.8-65.2 7.8-103.8 8.7-156.2C296.3 329.6 247.8 307.8 264.5 276z"/></g></svg>