<?xml version="1.0" encoding="utf-8"?>
<!-- Generator: Adobe Illustrator 19.1.0, SVG Export Plug-In . SVG Version: 6.00 Build 0)  -->
<svg version="1.1" id="Layer_1" xmlns="http://www.w3.org/2000/svg" xmlns:xlink="http://www.w3.org/1999/xlink" x="0px" y="0px"
	 viewBox="0 0 500 500" style="enable-background:new 0 0 500 500;" xml:space="preserve">
<style type="text/css">
	.st0{fill:#00FFFF;}
</style>
<path class="st0" d="M420.6,248.3L337,103.4l80.1-46.2L335.3,10v91.8H164.6l0,0V9.2L82.8,56.4l81,46.8l-84,145.5L-1.1,202v94.4
	l80-46.2l84.8,146.9l-79.1,45.7l81.8,47.2v-91.4H336l0,0V489l81.8-47.2l-80-46.2l83.3-144.3l78.9,45.5v-94.4L420.6,248.3z
	 M376.7,176l0.1,48.7l-42.1-72.9L376.7,176z M250.1,103.2l43.1,24.8h-86L250.1,103.2z M123.7,176.4l42.2-24.4l-42.1,72.9
	L123.7,176.4z M124,322.5l-0.1-46.7l40.3,69.8L124,322.5z M187.5,359.1L187.5,359.1L187.5,359.1L187.5,359.1z M250.6,395.3
	L211,372.5h78.9L250.6,395.3z M313.2,359.1L313.2,359.1L313.2,359.1L313.2,359.1z M293.9,324.7H207l-43.5-75.3l43.5-75.3h86.9
	l43.5,75.3L293.9,324.7z M336.6,345.5l40.3-69.8L377,322L336.6,345.5z"/>
</svg>
