<svg xmlns="http://www.w3.org/2000/svg" viewBox="0 0 500 500"><style type="text/css">  
	.st0{fill:#00FF00;}
	.st1{display:none;}
	.st2{display:inline;fill:#ED1C24;}
</style><path class="st0" d="M381.5 300.4c-6.3 14.4-21.6 43.5-53.9 61.8 -21.9 12.5-50.4 19.2-67.5 17.4V500h-18.2v-48c-16.7-2.3-43.6-18.1-61.6-37.6 -25.1-27.3-30.8-59.7-32.4-75.3 15.6 2.2 47.7 9.1 74 35.2 7.5 7.4 14.3 16.2 19.9 25.2v-86c3 0.5 6 0.7 9.1 0.7 3.1 0 6.1-0.2 9.1-0.7V342c10.3-11.4 24.9-23 40.1-30.7C333.2 294.5 366 297.8 381.5 300.4z"/><line class="st0" x1="289.9" y1="205.7" x2="289.9" y2="205.7"/><line class="st0" x1="289.9" y1="205.7" x2="289.9" y2="205.7"/><g class="st1"><path class="st2" d="M312.2 156v97c0 30.7-22.6 56.1-52.1 60.5 -3 0.5-6 0.7-9.1 0.7 -3.1 0-6.1-0.2-9.1-0.7 -29.5-4.4-52.1-29.8-52.1-60.5v-97l30.9 43.8 18.9-43.8 14.9 35.8 22.9-35.8 12.5 49.6L312.2 156z"/></g></svg>