<?xml version="1.0" encoding="utf-8"?>
<!-- Generator: Adobe Illustrator 19.1.0, SVG Export Plug-In . SVG Version: 6.00 Build 0)  -->
<svg version="1.1" xmlns="http://www.w3.org/2000/svg" xmlns:xlink="http://www.w3.org/1999/xlink" x="0px" y="0px"
	 viewBox="0 0 500 500" style="enable-background:new 0 0 500 500;" xml:space="preserve">
<style type="text/css">
	.st0{fill:#FCEE21;}
	.st1{display:none;}
	.st2{display:inline;fill:#FCEE21;}
</style>
<g id="Layer_1">
	<circle class="st0" cx="250" cy="250" r="131.7"/>
</g>
<g id="Layer_2" class="st1">
	<path class="st2" d="M250.8,69.4c1.7-5,3.1-12,0.8-19.2c-3.3-10.3-11.9-13.6-11.6-21.3c0.1-3.2,1.8-8,9.9-13.6
		c-0.6,0.6-1.4,1.4-2.1,2.7c-2.4,4.2-1.5,8.8-1.1,10.8c2.2,10.7,11.3,13.4,12.9,21.4C260.4,54.3,259.3,60.5,250.8,69.4z"/>
	<path class="st2" d="M160.3,93.2c-1-5.2-3.3-11.9-8.9-17c-8-7.3-17.1-5.9-20.7-12.6c-1.5-2.9-2.4-7.8,1.7-16.7
		c-0.2,0.8-0.5,1.9-0.4,3.4c0.1,4.9,3.1,8.4,4.5,9.9c7.3,8.1,16.5,5.9,21.8,12.1C161.1,75.3,163.3,81.2,160.3,93.2z"/>
	<path class="st2" d="M93.9,159c-3.5-4-8.8-8.7-16.2-10.3c-10.6-2.3-17.7,3.5-24.2-0.6c-2.7-1.7-6-5.6-6.9-15.3
		c0.2,0.8,0.6,1.9,1.3,3.1c2.5,4.2,6.9,5.7,8.8,6.3c10.4,3.4,17.3-3.1,24.9-0.5C85.7,143.2,90.5,147.2,93.9,159z"/>
	<path class="st2" d="M69.4,249.3c-5-1.7-12-3.1-19.2-0.8c-10.3,3.3-13.6,11.9-21.3,11.6c-3.2-0.1-8-1.8-13.6-9.9
		c0.6,0.6,1.4,1.4,2.7,2.1c4.2,2.4,8.8,1.5,10.8,1.1c10.7-2.2,13.4-11.3,21.4-12.9C54.3,239.6,60.5,240.7,69.4,249.3z"/>
	<path class="st2" d="M93.2,339.7c-5.2,1-11.9,3.3-17,8.9c-7.3,8-5.9,17.1-12.6,20.7c-2.9,1.5-7.8,2.4-16.7-1.7
		c0.8,0.2,1.9,0.5,3.4,0.4c4.9-0.1,8.4-3.1,9.9-4.5c8.1-7.3,5.9-16.5,12.1-21.8C75.3,338.9,81.2,336.7,93.2,339.7z"/>
	<path class="st2" d="M159,406.1c-4,3.5-8.7,8.8-10.3,16.2c-2.3,10.6,3.5,17.7-0.6,24.2c-1.7,2.7-5.6,6-15.3,6.9
		c0.8-0.2,1.9-0.6,3.1-1.3c4.2-2.5,5.7-6.9,6.3-8.8c3.4-10.4-3.1-17.3-0.5-24.9C143.2,414.3,147.2,409.5,159,406.1z"/>
	<path class="st2" d="M249.3,430.6c-1.7,5-3.1,12-0.8,19.2c3.3,10.3,11.9,13.6,11.6,21.3c-0.1,3.2-1.8,8-9.9,13.6
		c0.6-0.6,1.4-1.4,2.1-2.7c2.4-4.2,1.5-8.8,1.1-10.8c-2.2-10.7-11.3-13.4-12.9-21.4C239.6,445.7,240.7,439.5,249.3,430.6z"/>
	<path class="st2" d="M339.7,406.8c1,5.2,3.3,11.9,8.9,17c8,7.3,17.1,5.9,20.7,12.6c1.5,2.9,2.4,7.8-1.7,16.7
		c0.2-0.8,0.5-1.9,0.4-3.4c-0.1-4.9-3.1-8.4-4.5-9.9c-7.3-8.1-16.5-5.9-21.8-12.1C338.9,424.7,336.7,418.8,339.7,406.8z"/>
	<path class="st2" d="M406.1,341c3.5,4,8.8,8.7,16.2,10.3c10.6,2.3,17.7-3.5,24.2,0.6c2.7,1.7,6,5.6,6.9,15.3
		c-0.2-0.8-0.6-1.9-1.3-3.1c-2.5-4.2-6.9-5.7-8.8-6.3c-10.4-3.4-17.3,3.1-24.9,0.5C414.3,356.8,409.5,352.8,406.1,341z"/>
	<path class="st2" d="M430.6,250.8c5,1.7,12,3.1,19.2,0.8c10.3-3.3,13.6-11.9,21.3-11.6c3.2,0.1,8,1.8,13.6,9.9
		c-0.6-0.6-1.4-1.4-2.7-2.1c-4.2-2.4-8.8-1.5-10.8-1.1c-10.7,2.2-13.4,11.3-21.4,12.9C445.7,260.4,439.5,259.3,430.6,250.8z"/>
	<path class="st2" d="M406.8,160.3c5.2-1,11.9-3.3,17-8.9c7.3-8,5.9-17.1,12.6-20.7c2.9-1.5,7.8-2.4,16.7,1.7
		c-0.8-0.2-1.9-0.5-3.4-0.4c-4.9,0.1-8.4,3.1-9.9,4.5c-8.1,7.3-5.9,16.5-12.1,21.8C424.7,161.1,418.8,163.3,406.8,160.3z"/>
	<path class="st2" d="M341,93.9c4-3.5,8.7-8.8,10.3-16.2c2.3-10.6-3.5-17.7,0.6-24.2c1.7-2.7,5.6-6,15.3-6.9
		c-0.8,0.2-1.9,0.6-3.1,1.3c-4.2,2.5-5.7,6.9-6.3,8.8c-3.4,10.4,3.1,17.3,0.5,24.9C356.8,85.7,352.8,90.5,341,93.9z"/>
</g>
</svg>
